<svg xmlns="http://www.w3.org/2000/svg" viewBox="0 0 800 500" width="800" height="500">
  <defs>
    <linearGradient id="bg2" x1="0" y1="0" x2="1" y2="1">
      <stop offset="0" stop-color="#1a0f33"/>
      <stop offset="1" stop-color="#0a0512"/>
    </linearGradient>
    <linearGradient id="ac2" x1="0" y1="0" x2="0" y2="1">
      <stop offset="0" stop-color="#d946ef"/>
      <stop offset="1" stop-color="#6366f1"/>
    </linearGradient>
    <radialGradient id="gl2" cx="50%" cy="40%" r="55%">
      <stop offset="0" stop-color="#b026ff" stop-opacity="0.4"/>
      <stop offset="1" stop-color="#b026ff" stop-opacity="0"/>
    </radialGradient>
  </defs>
  <rect width="800" height="500" fill="url(#bg2)"/>
  <rect width="800" height="500" fill="url(#gl2)"/>
  <!-- teléfono -->
  <rect x="312" y="40" width="176" height="420" rx="34" fill="#0e0820" stroke="url(#ac2)" stroke-width="3"/>
  <rect x="324" y="58" width="152" height="384" rx="24" fill="#140b2a"/>
  <rect x="368" y="50" width="64" height="12" rx="6" fill="#0e0820"/>
  <!-- contenido app -->
  <circle cx="400" cy="120" r="30" fill="url(#ac2)"/>
  <rect x="350" y="166" width="100" height="12" rx="6" fill="#6b4ba8"/>
  <rect x="364" y="186" width="72" height="9" rx="4" fill="#3a2470"/>
  <rect x="344" y="220" width="112" height="60" rx="14" fill="#1c1140" stroke="#d946ef" stroke-opacity="0.4"/>
  <rect x="360" y="236" width="60" height="10" rx="5" fill="#a855f7"/>
  <rect x="360" y="254" width="80" height="14" rx="6" fill="url(#ac2)"/>
  <rect x="344" y="296" width="112" height="34" rx="10" fill="#130a28"/>
  <rect x="344" y="338" width="112" height="34" rx="10" fill="#130a28"/>
  <rect x="344" y="388" width="112" height="38" rx="12" fill="url(#ac2)"/>
  <text x="400" y="412" text-anchor="middle" font-family="'Sora',sans-serif" font-size="13" font-weight="700" fill="#0a0512">Ingresar</text>
  <text x="40" y="470" font-family="'JetBrains Mono',monospace" font-size="13" fill="#8b7bb5">App Móvil · React Native</text>
</svg>
