<svg xmlns="http://www.w3.org/2000/svg" viewBox="0 0 800 500" width="800" height="500">
  <defs>
    <linearGradient id="bg4" x1="0" y1="0" x2="1" y2="1">
      <stop offset="0" stop-color="#1a0f33"/>
      <stop offset="1" stop-color="#07030f"/>
    </linearGradient>
    <linearGradient id="txt" x1="0" y1="0" x2="1" y2="0">
      <stop offset="0" stop-color="#c084fc"/>
      <stop offset="0.5" stop-color="#ff5fe1"/>
      <stop offset="1" stop-color="#22d3ee"/>
    </linearGradient>
    <radialGradient id="gl4" cx="70%" cy="30%" r="60%">
      <stop offset="0" stop-color="#b026ff" stop-opacity="0.45"/>
      <stop offset="1" stop-color="#b026ff" stop-opacity="0"/>
    </radialGradient>
  </defs>
  <rect width="800" height="500" fill="url(#bg4)"/>
  <rect width="800" height="500" fill="url(#gl4)"/>
  <!-- grid -->
  <g stroke="#a855f7" stroke-opacity="0.08">
    <line x1="0" y1="125" x2="800" y2="125"/><line x1="0" y1="250" x2="800" y2="250"/><line x1="0" y1="375" x2="800" y2="375"/>
    <line x1="200" y1="0" x2="200" y2="500"/><line x1="400" y1="0" x2="400" y2="500"/><line x1="600" y1="0" x2="600" y2="500"/>
  </g>
  <text x="60" y="170" font-family="'JetBrains Mono',monospace" font-size="15" fill="#c084fc">&lt;/&gt; hola, soy</text>
  <text x="58" y="250" font-family="'Sora',sans-serif" font-size="64" font-weight="800" fill="url(#txt)">Rhandy Caná</text>
  <text x="60" y="300" font-family="'Sora',sans-serif" font-size="22" font-weight="700" fill="#ece8ff">Desarrollador Full-Stack &amp; UI/UX</text>
  <rect x="60" y="332" width="170" height="46" rx="23" fill="url(#txt)"/>
  <text x="145" y="361" text-anchor="middle" font-family="'Sora',sans-serif" font-size="15" font-weight="700" fill="#0a0512">Ver proyectos</text>
  <rect x="244" y="332" width="150" height="46" rx="23" fill="none" stroke="#c084fc" stroke-opacity="0.6"/>
  <text x="319" y="361" text-anchor="middle" font-family="'Sora',sans-serif" font-size="15" font-weight="600" fill="#d8b4fe">Descargar CV</text>
  <circle cx="650" cy="180" r="90" fill="none" stroke="url(#txt)" stroke-width="2" stroke-opacity="0.5"/>
  <circle cx="650" cy="180" r="60" fill="none" stroke="#ff5fe1" stroke-width="2" stroke-opacity="0.4"/>
</svg>
