<svg xmlns="http://www.w3.org/2000/svg" viewBox="0 0 800 500" width="800" height="500">
  <defs>
    <linearGradient id="bg" x1="0" y1="0" x2="1" y2="1">
      <stop offset="0" stop-color="#160d2c"/>
      <stop offset="1" stop-color="#0a0512"/>
    </linearGradient>
    <linearGradient id="ac" x1="0" y1="0" x2="1" y2="0">
      <stop offset="0" stop-color="#a855f7"/>
      <stop offset="1" stop-color="#d946ef"/>
    </linearGradient>
  </defs>
  <rect width="800" height="500" fill="url(#bg)"/>
  <!-- barra de ventana -->
  <rect width="800" height="44" fill="#0e0820"/>
  <circle cx="26" cy="22" r="6" fill="#fb7185"/>
  <circle cx="48" cy="22" r="6" fill="#fbbf24"/>
  <circle cx="70" cy="22" r="6" fill="#5ee4a8"/>
  <rect x="300" y="14" width="200" height="16" rx="8" fill="#1c1140"/>
  <!-- sidebar -->
  <rect x="20" y="64" width="150" height="416" rx="14" fill="#130a28" stroke="#7c3aed" stroke-opacity="0.25"/>
  <rect x="40" y="90" width="110" height="12" rx="6" fill="url(#ac)"/>
  <rect x="40" y="124" width="90" height="9" rx="4" fill="#3a2470"/>
  <rect x="40" y="148" width="100" height="9" rx="4" fill="#3a2470"/>
  <rect x="40" y="172" width="80" height="9" rx="4" fill="#3a2470"/>
  <!-- cards -->
  <rect x="190" y="64" width="180" height="100" rx="14" fill="#1a1138" stroke="#d946ef" stroke-opacity="0.3"/>
  <rect x="210" y="86" width="70" height="10" rx="5" fill="#6b4ba8"/>
  <rect x="210" y="108" width="120" height="22" rx="6" fill="url(#ac)"/>
  <rect x="386" y="64" width="180" height="100" rx="14" fill="#1a1138" stroke="#6366f1" stroke-opacity="0.3"/>
  <rect x="406" y="86" width="70" height="10" rx="5" fill="#6b4ba8"/>
  <rect x="406" y="108" width="100" height="22" rx="6" fill="#6366f1"/>
  <rect x="582" y="64" width="198" height="100" rx="14" fill="#1a1138" stroke="#22d3ee" stroke-opacity="0.3"/>
  <rect x="602" y="86" width="70" height="10" rx="5" fill="#6b4ba8"/>
  <rect x="602" y="108" width="90" height="22" rx="6" fill="#22d3ee"/>
  <!-- gráfica -->
  <rect x="190" y="184" width="590" height="296" rx="16" fill="#130a28" stroke="#7c3aed" stroke-opacity="0.22"/>
  <polyline points="220,420 300,360 380,388 460,300 540,330 620,250 740,280"
            fill="none" stroke="url(#ac)" stroke-width="4" stroke-linecap="round" stroke-linejoin="round"/>
  <polyline points="220,440 300,410 380,430 460,380 540,400 620,350 740,370"
            fill="none" stroke="#22d3ee" stroke-width="3" stroke-opacity="0.6" stroke-linecap="round"/>
  <text x="40" y="470" font-family="'JetBrains Mono',monospace" font-size="13" fill="#8b7bb5">Sistema Bancario</text>
</svg>
